<svg width="8" height="32" viewBox="0 0 8 32" fill="none" xmlns="http://www.w3.org/2000/svg">
<path d="M4 8.18605C2.93913 8.18605 1.92172 7.75482 1.17157 6.98723C0.421428 6.21964 1.68099e-06 5.17856 1.72844e-06 4.09302C1.77589e-06 3.00749 0.421429 1.96641 1.17157 1.19882C1.92172 0.431227 2.93914 -2.21217e-07 4 -1.74846e-07C5.06087 -1.28474e-07 6.07828 0.431228 6.82843 1.19882C7.57857 1.96641 8 3.00749 8 4.09302C8 5.17856 7.57857 6.21964 6.82843 6.98723C6.07828 7.75482 5.06087 8.18605 4 8.18605ZM4 20.093C2.93913 20.093 1.92172 19.6618 1.17157 18.8942C0.421428 18.1266 1.16052e-06 17.0855 1.20797e-06 16C1.25542e-06 14.9145 0.421428 13.8734 1.17157 13.1058C1.92172 12.3382 2.93913 11.907 4 11.907C5.06087 11.907 6.07828 12.3382 6.82843 13.1058C7.57857 13.8734 8 14.9145 8 16C8 17.0855 7.57857 18.1266 6.82843 18.8942C6.07828 19.6618 5.06087 20.093 4 20.093ZM6.87496e-07 27.907C6.40046e-07 28.9925 0.421427 30.0336 1.17157 30.8012C1.92172 31.5688 2.93913 32 4 32C5.06087 32 6.07828 31.5688 6.82843 30.8012C7.57857 30.0336 8 28.9925 8 27.907C8 26.8214 7.57857 25.7804 6.82843 25.0128C6.07828 24.2452 5.06087 23.814 4 23.814C2.93913 23.814 1.92172 24.2452 1.17157 25.0128C0.421428 25.7804 7.34946e-07 26.8214 6.87496e-07 27.907Z" fill="url(#paint0_linear_32_79)"/>
<defs>
<linearGradient id="paint0_linear_32_79" x1="8" y1="36" x2="8" y2="-2.5" gradientUnits="userSpaceOnUse">
<stop stop-color="#D55AB2"/>
<stop offset="1" stop-color="#FEF9C9"/>
</linearGradient>
</defs>
</svg>
